<svg width="32" height="32" viewBox="0 0 32 32" fill="none" xmlns="http://www.w3.org/2000/svg">
<path d="M10.314 21.5C10.0341 21.4897 9.76465 21.4177 9.50554 21.284C9.25679 21.1503 9.0495 20.9189 8.88366 20.5898C8.71783 20.2606 8.63492 19.8081 8.63492 19.2321C8.63492 19.1601 8.63492 19.0881 8.63492 19.0161C8.63492 18.9338 8.6401 18.8567 8.65046 18.7847C8.69192 18.2705 8.81629 17.6996 9.02358 17.0722C9.24124 16.4345 9.52108 15.7866 9.86311 15.1283C10.2051 14.4701 10.5938 13.8478 11.0291 13.2616C11.4644 12.665 11.9205 12.1559 12.3972 11.7342C12.5112 11.6314 12.6253 11.5491 12.7393 11.4874C12.8533 11.4154 12.9725 11.3588 13.0968 11.3177C12.703 11.3897 12.2884 11.4514 11.8531 11.5028C11.4282 11.5542 11.0188 11.6005 10.6249 11.6417C10.2414 11.6828 9.91493 11.7342 9.64546 11.7959C9.09614 11.9194 8.67637 12.1559 8.38617 12.5056C8.10632 12.8553 7.97159 13.277 7.98195 13.7707C7.81612 13.5958 7.69174 13.4158 7.60883 13.2307C7.53628 13.0456 7.5 12.8707 7.5 12.7062C7.5 12.5005 7.54146 12.305 7.62437 12.1199C7.71765 11.9245 7.82648 11.7599 7.95086 11.6262C8.20997 11.328 8.53645 11.112 8.9303 10.9783C9.33452 10.8446 9.75428 10.7623 10.1896 10.7314C10.6353 10.6903 11.055 10.6697 11.4489 10.6697H14.636C14.6982 10.6697 14.6982 10.7108 14.636 10.7931C14.5842 10.8754 14.5064 10.968 14.4028 11.0708C14.2991 11.1737 14.2007 11.256 14.1074 11.3177C13.8275 11.4822 13.5062 11.7856 13.1435 12.2279C12.7807 12.6599 12.4128 13.1896 12.0397 13.817C11.6769 14.4341 11.3452 15.118 11.0447 15.8689C10.941 16.1157 10.827 16.4243 10.7026 16.7945C10.5886 17.1648 10.485 17.5556 10.3917 17.967C10.3088 18.3682 10.2673 18.7487 10.2673 19.1087C10.2673 19.4892 10.3399 19.8132 10.485 20.0806C10.6301 20.3378 10.884 20.4663 11.2468 20.4663C11.5266 20.4663 11.8583 20.3018 12.2418 19.9727C12.6253 19.6435 13.0295 19.2167 13.4544 18.6921C13.8794 18.1573 14.2939 17.5968 14.6982 17.0105C14.978 16.5888 15.2216 16.1466 15.4289 15.6837C15.6362 15.2209 15.8331 14.7632 16.0196 14.3107C16.2062 13.8581 16.4031 13.4364 16.6104 13.0456C16.7348 12.809 16.9162 12.5725 17.1546 12.3359C17.3929 12.0891 17.6572 11.8885 17.9474 11.7342C18.248 11.5697 18.5538 11.4874 18.8647 11.4874C18.9062 11.4874 18.9424 11.4874 18.9735 11.4874C19.015 11.4874 19.0564 11.4925 19.0979 11.5028C19.1705 11.5131 19.2067 11.5285 19.2067 11.5491C19.2171 11.5697 19.243 11.6005 19.2845 11.6417C18.9424 12.1045 18.5797 12.7165 18.1962 13.4776C17.8231 14.2387 17.5225 15.0923 17.2945 16.0386C17.1908 16.4603 17.1131 16.8614 17.0613 17.2419C17.0198 17.6122 16.9991 17.9568 16.9991 18.2756C16.9991 18.9544 17.1131 19.4892 17.3411 19.8801C17.5691 20.2709 17.9008 20.4663 18.3361 20.4663C18.7507 20.4663 19.1445 20.3223 19.5177 20.0344C19.9012 19.7361 20.2535 19.3453 20.5748 18.8619C20.9065 18.3784 21.2071 17.8539 21.4766 17.2882C21.746 16.7225 21.9792 16.1723 22.1762 15.6374C22.2798 15.37 22.3938 15.0409 22.5182 14.6501C22.6426 14.2592 22.7514 13.853 22.8447 13.4313C22.938 12.9993 22.9846 12.6033 22.9846 12.2433C22.9846 11.8936 22.9224 11.6057 22.798 11.3794C22.6737 11.1428 22.456 11.0245 22.1451 11.0245C21.9792 11.0245 21.7927 11.0605 21.5854 11.1325C21.6165 10.9474 21.7512 10.7983 21.9896 10.6851C22.228 10.5617 22.4975 10.5 22.798 10.5C23.0571 10.5 23.3111 10.5514 23.5598 10.6543C23.8086 10.7571 24.0211 10.9217 24.1972 11.148C24.3734 11.3742 24.4719 11.6828 24.4926 12.0736C24.5237 12.6085 24.4564 13.1947 24.2905 13.8324C24.1351 14.4701 23.9019 15.118 23.5909 15.7763C23.2904 16.4345 22.9328 17.0722 22.5182 17.6893C22.114 18.3065 21.6787 18.867 21.2123 19.371C20.9324 19.6692 20.5904 19.9727 20.1862 20.2812C19.7923 20.5898 19.3622 20.8469 18.8958 21.0526C18.4294 21.248 17.9474 21.3457 17.4499 21.3457C17.3774 21.3457 17.3048 21.3457 17.2323 21.3457C17.1597 21.3354 17.082 21.3252 16.9991 21.3149C16.4601 21.2326 16.0766 20.9292 15.8486 20.4046C15.6206 19.8698 15.5066 19.227 15.5066 18.4762C15.5066 18.0956 15.5325 17.6996 15.5843 17.2882C15.6362 16.8768 15.7035 16.4603 15.7864 16.0386C15.4755 16.6454 15.1179 17.2934 14.7137 17.9825C14.3095 18.6613 13.8638 19.2784 13.3767 19.8338C12.9725 20.2966 12.5838 20.6463 12.2107 20.8829C11.8479 21.1194 11.5059 21.284 11.1846 21.3766C10.8633 21.4589 10.5731 21.5 10.314 21.5Z" fill="#181817"/>
</svg>
