<svg width="31" height="302" viewBox="0 0 31 302" fill="none" xmlns="http://www.w3.org/2000/svg">
<path d="M15.5 263L18.3868 258L12.6132 258L15.5 263ZM15.5 5.66666C16.9727 5.66666 18.1667 4.47276 18.1667 3C18.1667 1.52724 16.9727 0.333329 15.5 0.33333C14.0272 0.33333 12.8333 1.52724 12.8333 3C12.8333 4.47276 14.0272 5.66666 15.5 5.66666ZM16 258.5L16 256.5L15 256.5L15 258.5L16 258.5ZM16 243.5L16 230.5L15 230.5L15 243.5L16 243.5ZM16 217.5L16 204.5L15 204.5L15 217.5L16 217.5ZM16 191.5L16 178.5L15 178.5L15 191.5L16 191.5ZM16 165.5L16 152.5L15 152.5L15 165.5L16 165.5ZM16 139.5L16 126.5L15 126.5L15 139.5L16 139.5ZM16 113.5L16 100.5L15 100.5L15 113.5L16 113.5ZM16 87.5L16 74.5L15 74.5L15 87.5L16 87.5ZM16 61.5L16 48.5L15 48.5L15 61.5L16 61.5ZM16 35.5L16 22.5L15 22.5L15 35.5L16 35.5ZM16 9.49999L16 3L15 3L15 9.49999L16 9.49999Z" fill="url(#paint0_linear_755_1695)"/>
<path d="M15.5 263L18.3868 258L12.6132 258L15.5 263ZM15.5 5.66666C16.9727 5.66666 18.1667 4.47276 18.1667 3C18.1667 1.52724 16.9727 0.333329 15.5 0.33333C14.0272 0.33333 12.8333 1.52724 12.8333 3C12.8333 4.47276 14.0272 5.66666 15.5 5.66666ZM16 258.5L16 256.5L15 256.5L15 258.5L16 258.5ZM16 243.5L16 230.5L15 230.5L15 243.5L16 243.5ZM16 217.5L16 204.5L15 204.5L15 217.5L16 217.5ZM16 191.5L16 178.5L15 178.5L15 191.5L16 191.5ZM16 165.5L16 152.5L15 152.5L15 165.5L16 165.5ZM16 139.5L16 126.5L15 126.5L15 139.5L16 139.5ZM16 113.5L16 100.5L15 100.5L15 113.5L16 113.5ZM16 87.5L16 74.5L15 74.5L15 87.5L16 87.5ZM16 61.5L16 48.5L15 48.5L15 61.5L16 61.5ZM16 35.5L16 22.5L15 22.5L15 35.5L16 35.5ZM16 9.49999L16 3L15 3L15 9.49999L16 9.49999Z" fill="url(#paint1_linear_755_1695)"/>
<g filter="url(#filter0_f_755_1695)">
<path d="M8.3125 286.5L15.5 279.312L22.6875 286.5L15.5 293.688L8.3125 286.5Z" fill="#649C84" fill-opacity="0.6"/>
</g>
<g filter="url(#filter1_f_755_1695)">
<path d="M15.5 275V298M4 286.5H27" stroke="#649C84" stroke-opacity="0.8"/>
</g>
<g filter="url(#filter2_f_755_1695)">
<path d="M14.0625 285.062L15.5 276.438L16.9375 285.062L25.5625 286.5L16.9375 287.938L15.5 296.562L14.0625 287.938L5.4375 286.5L14.0625 285.062Z" fill="#649C84"/>
</g>
<defs>
<filter id="filter0_f_755_1695" x="4.3125" y="275.312" width="22.375" height="22.375" filterUnits="userSpaceOnUse" color-interpolation-filters="sRGB">
<feFlood flood-opacity="0" result="BackgroundImageFix"/>
<feBlend mode="normal" in="SourceGraphic" in2="BackgroundImageFix" result="shape"/>
<feGaussianBlur stdDeviation="2" result="effect1_foregroundBlur_755_1695"/>
</filter>
<filter id="filter1_f_755_1695" x="0" y="271" width="31" height="31" filterUnits="userSpaceOnUse" color-interpolation-filters="sRGB">
<feFlood flood-opacity="0" result="BackgroundImageFix"/>
<feBlend mode="normal" in="SourceGraphic" in2="BackgroundImageFix" result="shape"/>
<feGaussianBlur stdDeviation="2" result="effect1_foregroundBlur_755_1695"/>
</filter>
<filter id="filter2_f_755_1695" x="3.4375" y="274.438" width="24.125" height="24.125" filterUnits="userSpaceOnUse" color-interpolation-filters="sRGB">
<feFlood flood-opacity="0" result="BackgroundImageFix"/>
<feBlend mode="normal" in="SourceGraphic" in2="BackgroundImageFix" result="shape"/>
<feGaussianBlur stdDeviation="1" result="effect1_foregroundBlur_755_1695"/>
</filter>
<linearGradient id="paint0_linear_755_1695" x1="16" y1="3" x2="16" y2="263" gradientUnits="userSpaceOnUse">
<stop stop-color="#616B7B"/>
<stop offset="1" stop-color="#AFC9E6"/>
</linearGradient>
<linearGradient id="paint1_linear_755_1695" x1="16" y1="263" x2="16" y2="3" gradientUnits="userSpaceOnUse">
<stop stop-color="#649C84"/>
<stop offset="0.32" stop-color="#C39174"/>
<stop offset="0.66" stop-color="#F6786A"/>
</linearGradient>
</defs>
</svg>
