<svg width="31" height="302" viewBox="0 0 31 302" fill="none" xmlns="http://www.w3.org/2000/svg">
<path d="M15.5 263L18.3868 258L12.6132 258L15.5 263ZM15.5 5.66667C16.9727 5.66667 18.1667 4.47277 18.1667 3.00001C18.1667 1.52725 16.9727 0.33334 15.5 0.33334C14.0272 0.333341 12.8333 1.52725 12.8333 3.00001C12.8333 4.47277 14.0272 5.66667 15.5 5.66667ZM16 258.5L16 256.5L15 256.5L15 258.5L16 258.5ZM16 243.5L16 230.5L15 230.5L15 243.5L16 243.5ZM16 217.5L16 204.5L15 204.5L15 217.5L16 217.5ZM16 191.5L16 178.5L15 178.5L15 191.5L16 191.5ZM16 165.5L16 152.5L15 152.5L15 165.5L16 165.5ZM16 139.5L16 126.5L15 126.5L15 139.5L16 139.5ZM16 113.5L16 100.5L15 100.5L15 113.5L16 113.5ZM16 87.5L16 74.5L15 74.5L15 87.5L16 87.5ZM16 61.5L16 48.5L15 48.5L15 61.5L16 61.5ZM16 35.5L16 22.5L15 22.5L15 35.5L16 35.5ZM16 9.5L16 3.00001L15 3.00001L15 9.5L16 9.5Z" fill="url(#paint0_linear_875_3447)"/>
<g filter="url(#filter0_f_875_3447)">
<path d="M8.3125 286.5L15.5 279.312L22.6875 286.5L15.5 293.688L8.3125 286.5Z" fill="#E5EBF0" fill-opacity="0.6"/>
</g>
<g filter="url(#filter1_f_875_3447)">
<path d="M15.5 275V298M4 286.5H27" stroke="#D2D5D8" stroke-opacity="0.8"/>
</g>
<g filter="url(#filter2_f_875_3447)">
<path d="M14.0625 285.062L15.5 276.438L16.9375 285.062L25.5625 286.5L16.9375 287.938L15.5 296.562L14.0625 287.938L5.4375 286.5L14.0625 285.062Z" fill="#D2D5D8"/>
</g>
<defs>
<filter id="filter0_f_875_3447" x="3.3125" y="274.312" width="24.375" height="24.375" filterUnits="userSpaceOnUse" color-interpolation-filters="sRGB">
<feFlood flood-opacity="0" result="BackgroundImageFix"/>
<feBlend mode="normal" in="SourceGraphic" in2="BackgroundImageFix" result="shape"/>
<feGaussianBlur stdDeviation="2.5" result="effect1_foregroundBlur_875_3447"/>
</filter>
<filter id="filter1_f_875_3447" x="0" y="271" width="31" height="31" filterUnits="userSpaceOnUse" color-interpolation-filters="sRGB">
<feFlood flood-opacity="0" result="BackgroundImageFix"/>
<feBlend mode="normal" in="SourceGraphic" in2="BackgroundImageFix" result="shape"/>
<feGaussianBlur stdDeviation="2" result="effect1_foregroundBlur_875_3447"/>
</filter>
<filter id="filter2_f_875_3447" x="0.4375" y="271.438" width="30.125" height="30.125" filterUnits="userSpaceOnUse" color-interpolation-filters="sRGB">
<feFlood flood-opacity="0" result="BackgroundImageFix"/>
<feBlend mode="normal" in="SourceGraphic" in2="BackgroundImageFix" result="shape"/>
<feGaussianBlur stdDeviation="2.5" result="effect1_foregroundBlur_875_3447"/>
</filter>
<linearGradient id="paint0_linear_875_3447" x1="16" y1="3" x2="16" y2="263" gradientUnits="userSpaceOnUse">
<stop stop-color="#BDBEC2"/>
<stop offset="1" stop-color="#D2D5D8"/>
</linearGradient>
</defs>
</svg>
