<svg width="32" height="32" viewBox="0 0 32 32" fill="none" xmlns="http://www.w3.org/2000/svg">
<path d="M6 11.8252C6 10.7686 6.89543 9.91211 8 9.91211H24C25.1046 9.91211 26 10.7686 26 11.8252V20.7528C26 21.8094 25.1046 22.6659 24 22.6659H8C6.89543 22.6659 6 21.8094 6 20.7528V11.8252Z" fill="#5B5B5B"/>
<path d="M12.668 15.6533C12.668 13.8924 14.1604 12.4648 16.0013 12.4648V12.4648C17.8423 12.4648 19.3346 13.8924 19.3346 15.6533V15.6533C19.3346 17.4142 17.8423 18.8417 16.0013 18.8417V18.8417C14.1604 18.8417 12.668 17.4142 12.668 15.6533V15.6533Z" fill="#F1F4FA"/>
<path d="M21.332 13.4214C21.332 12.8931 21.7797 12.4648 22.332 12.4648V12.4648C22.8843 12.4648 23.332 12.8931 23.332 13.4214V13.4214C23.332 13.9497 22.8843 14.3779 22.332 14.3779V14.3779C21.7797 14.3779 21.332 13.9497 21.332 13.4214V13.4214Z" fill="#FFFBEE"/>
<path d="M12.4396 8.46056C12.8021 8.16336 13.2637 8 13.7412 8H18.2615C18.7389 8 19.2005 8.16336 19.563 8.46056L21.3346 9.91307H10.668L12.4396 8.46056Z" fill="#5B5B5B"/>
</svg>
