<svg width="226" height="43" viewBox="0 0 226 43" fill="none" xmlns="http://www.w3.org/2000/svg">
<path d="M20.0001 12.5431C20 5.91561 25.3726 0.542969 32.0001 0.542969H193C199.627 0.542969 205 5.91555 205 12.543V42.5442H20.0003L20.0001 12.5431Z" fill="white"/>
<path d="M0 42.5426H1.71875C4.90625 42.457 11.75 41.8578 15.5 38.4338C19.25 35.0098 19.9062 28.761 20 25.8506V24.2812C20 24.2812 20.0312 24.8805 20 25.8506V42.5426H1.71875C0.656251 42.5712 0 42.5426 0 42.5426Z" fill="white"/>
<path d="M225.016 42.5426H223.297C220.109 42.457 213.266 41.8578 209.516 38.4338C205.766 35.0098 205.109 28.761 205.016 25.8506V24.2812C205.016 24.2812 204.984 24.8805 205.016 25.8506V42.5426H223.297C224.359 42.5712 225.016 42.5426 225.016 42.5426Z" fill="white"/>
</svg>
