<svg width="350" height="350" viewBox="0 0 350 350" fill="none" xmlns="http://www.w3.org/2000/svg">
<g filter="url(#filter0_f_601_1349)">
<circle cx="175" cy="175" r="135" fill="url(#paint0_linear_601_1349)" fill-opacity="0.5"/>
</g>
<path d="M284.82 188.75V234H274.883L258.07 209.562H257.758V234H245.883V188.75H256.008L272.57 213.062H272.945V188.75H284.82Z" fill="white" fill-opacity="0.3"/>
<path d="M241.352 211.375C241.352 226.438 231.727 234.625 219.477 234.625C207.102 234.625 197.539 226.375 197.539 211.375C197.539 196.312 207.102 188.125 219.477 188.125C231.727 188.125 241.352 196.312 241.352 211.375ZM229.102 211.375C229.102 203.062 225.664 198.5 219.477 198.5C213.227 198.5 209.789 203.062 209.789 211.375C209.789 219.688 213.227 224.25 219.477 224.25C225.664 224.25 229.102 219.688 229.102 211.375Z" fill="white" fill-opacity="0.3"/>
<path d="M160.57 234V188.75H192.883V198.375H172.445V206.562H191.195V216.188H172.445V224.375H192.82V234H160.57Z" fill="white" fill-opacity="0.3"/>
<path d="M112.66 188.75H125.973L134.973 207.25H135.348L144.41 188.75H157.723L141.098 219.5V234H129.285V219.5L112.66 188.75Z" fill="white" fill-opacity="0.3"/>
<path d="M69.3789 234V188.75H81.2539V206.562H97.9414V188.75H109.879V234H97.9414V216.188H81.2539V234H69.3789Z" fill="white" fill-opacity="0.3"/>
<path d="M183.133 130.938V139.875H162.008V130.938H183.133Z" fill="white" fill-opacity="0.3"/>
<path d="M124.348 158H111.473L126.535 112.75H142.723L157.723 158H144.91L142.223 149.125H127.035L124.348 158ZM129.785 140.125H139.473L134.785 124.938H134.41L129.785 140.125Z" fill="white" fill-opacity="0.3"/>
<path d="M108.316 112.75V158H98.3789L81.5664 133.562H81.2539V158H69.3789V112.75H79.5039L96.0664 137.062H96.4414V112.75H108.316Z" fill="white" fill-opacity="0.3"/>
<defs>
<filter id="filter0_f_601_1349" x="0" y="0" width="350" height="350" filterUnits="userSpaceOnUse" color-interpolation-filters="sRGB">
<feFlood flood-opacity="0" result="BackgroundImageFix"/>
<feBlend mode="normal" in="SourceGraphic" in2="BackgroundImageFix" result="shape"/>
<feGaussianBlur stdDeviation="20" result="effect1_foregroundBlur_601_1349"/>
</filter>
<linearGradient id="paint0_linear_601_1349" x1="76.567" y1="66.4013" x2="287.258" y2="277.093" gradientUnits="userSpaceOnUse">
<stop stop-color="#A5D8EE"/>
<stop offset="1" stop-color="#2F4FB0"/>
</linearGradient>
</defs>
</svg>
